<svg width="512" height="205" viewBox="0 0 512 205" fill="none" xmlns="http://www.w3.org/2000/svg">
<path fill-rule="evenodd" clip-rule="evenodd" d="M153.471 53.0453C157.416 54.6798 161 57.0757 164.019 60.0958C167.039 63.1146 169.435 66.6988 171.07 70.6438C172.704 74.5887 173.545 78.8171 173.545 83.0872C173.545 87.3574 172.704 91.5858 171.07 95.5307C169.435 99.4756 167.039 103.06 164.019 106.079L118.92 151.177C114.972 155.126 108.57 155.126 104.622 151.177L59.5233 106.079C53.4257 99.9809 50 91.7107 50 83.0872C50 74.4638 53.4257 66.1935 59.5233 60.0958C65.621 53.9981 73.8913 50.5725 82.5147 50.5725C91.1382 50.5725 99.4084 53.9981 105.506 60.0958L111.771 66.3609L118.036 60.0958C121.055 57.0757 124.639 54.6798 128.584 53.0453C132.529 51.4107 136.757 50.5693 141.028 50.5693C145.298 50.5693 149.526 51.4107 153.471 53.0453ZM94.7909 85.9235C90.1799 92.8388 86.7588 99.7962 86.7588 107.342C86.7588 118.458 93.1235 128.909 102.249 132.963L105.369 128.523C109.136 124.219 115.245 124.217 119.014 128.523L121.563 131.435C130.688 127.38 136.288 117.874 136.288 107.34C136.288 94.2563 125.544 85.7211 125.544 85.7211C124.465 84.6986 123.567 85.1076 123.563 86.5791C123.563 86.5791 124.24 99.3098 117.547 99.3098C114.138 99.3098 114.077 96.0623 113.989 91.3414C113.877 85.3462 113.721 76.9748 106.606 69.8604C103.803 67.4575 102.677 66.4924 102.159 66.7499C100.947 67.3532 103.072 74.6661 94.7909 85.9235ZM124.337 75.1546C121.925 71.4337 117.247 69.2927 115.183 69.6503C114.29 69.8045 114.556 70.0983 115.244 70.8599C116.148 71.8605 117.782 73.6685 118.478 77.0277C119.706 82.941 127.705 80.5301 124.337 75.1546Z" fill="black"/>
<path d="M259.797 87.3173C258.066 84.1442 255.686 81.7283 252.658 80.0696C249.629 78.4109 246.095 77.5816 242.056 77.5816C237.585 77.5816 233.619 78.5912 230.157 80.6105C226.695 82.6298 223.991 85.5144 222.044 89.2645C220.097 93.0146 219.123 97.3416 219.123 102.246C219.123 107.294 220.097 111.693 222.044 115.443C224.063 119.193 226.84 122.078 230.373 124.097C233.907 126.116 238.018 127.126 242.705 127.126C248.475 127.126 253.198 125.611 256.876 122.583C260.554 119.481 262.97 115.191 264.124 109.71H238.162V98.1349H279.052V111.332C278.043 116.597 275.879 121.465 272.562 125.936C269.244 130.407 264.953 134.013 259.689 136.753C254.496 139.422 248.655 140.756 242.164 140.756C234.881 140.756 228.282 139.133 222.368 135.888C216.527 132.571 211.911 127.991 208.522 122.15C205.205 116.308 203.546 109.674 203.546 102.246C203.546 94.8175 205.205 88.1828 208.522 82.3413C211.911 76.4277 216.527 71.8483 222.368 68.603C228.282 65.2856 234.845 63.627 242.056 63.627C250.566 63.627 257.958 65.7183 264.232 69.9011C270.506 74.0118 274.833 79.8172 277.213 87.3173H259.797Z" fill="black"/>
<path d="M340.558 108.844C340.558 111.008 340.414 112.955 340.126 114.686H296.315C296.675 119.013 298.19 122.402 300.858 124.854C303.526 127.306 306.808 128.532 310.702 128.532C316.327 128.532 320.33 126.116 322.709 121.284H339.044C337.313 127.054 333.996 131.813 329.092 135.564C324.188 139.242 318.166 141.08 311.027 141.08C305.257 141.08 300.065 139.818 295.449 137.294C290.906 134.698 287.336 131.056 284.74 126.369C282.216 121.681 280.954 116.272 280.954 110.142C280.954 103.94 282.216 98.4955 284.74 93.8079C287.264 89.1203 290.798 85.5144 295.341 82.9903C299.884 80.4662 305.113 79.2042 311.027 79.2042C316.724 79.2042 321.808 80.4302 326.279 82.8822C330.823 85.3341 334.32 88.8318 336.772 93.3752C339.296 97.8464 340.558 103.003 340.558 108.844ZM324.873 104.517C324.801 100.623 323.395 97.5219 320.654 95.2142C317.914 92.8343 314.56 91.6444 310.594 91.6444C306.844 91.6444 303.671 92.7982 301.074 95.106C298.55 97.3416 297 100.479 296.423 104.517H324.873Z" fill="black"/>
<path d="M379.414 79.3124C386.553 79.3124 392.323 81.5841 396.722 86.1274C401.121 90.5987 403.32 96.8728 403.32 104.95V140.107H388.176V107.005C388.176 102.246 386.986 98.6036 384.606 96.0796C382.226 93.4833 378.981 92.1852 374.87 92.1852C370.688 92.1852 367.37 93.4833 364.918 96.0796C362.538 98.6036 361.348 102.246 361.348 107.005V140.107H346.204V80.1778H361.348V87.6419C363.368 85.0457 365.928 83.0264 369.029 81.5841C372.202 80.0696 375.664 79.3124 379.414 79.3124Z" fill="black"/>
<path d="M427.782 127.342H461.749V140.107H410.258V128.424L444.009 77.3652H410.258V64.6005H461.749V76.2835L427.782 127.342Z" fill="black"/>
</svg>
